<?xml version="1.0" encoding="UTF-8" standalone="no"?>
<!-- Created with Inkscape (http://www.inkscape.org/) -->

<svg
   xmlns:dc="http://purl.org/dc/elements/1.1/"
   xmlns:cc="http://creativecommons.org/ns#"
   xmlns:rdf="http://www.w3.org/1999/02/22-rdf-syntax-ns#"
   xmlns:svg="http://www.w3.org/2000/svg"
   xmlns="http://www.w3.org/2000/svg"
   xmlns:sodipodi="http://sodipodi.sourceforge.net/DTD/sodipodi-0.dtd"
   xmlns:inkscape="http://www.inkscape.org/namespaces/inkscape"
   width="512"
   height="128"
   viewBox="0 0 512.00001 128"
   id="svg2"
   version="1.1"
   inkscape:version="0.91 r13725"
   sodipodi:docname="logo.svg"
   inkscape:export-filename="/home/petervaro/documents/personal/remote/syswrap/img/logo.png"
   inkscape:export-xdpi="91.410004"
   inkscape:export-ydpi="91.410004">
  <defs
     id="defs4" />
  <sodipodi:namedview
     id="base"
     pagecolor="#ffffff"
     bordercolor="#666666"
     borderopacity="1.0"
     inkscape:pageopacity="0.0"
     inkscape:pageshadow="2"
     inkscape:zoom="2.8"
     inkscape:cx="270.36717"
     inkscape:cy="54.652375"
     inkscape:document-units="px"
     inkscape:current-layer="g4246"
     showgrid="false"
     inkscape:showpageshadow="false"
     units="px"
     inkscape:window-width="2560"
     inkscape:window-height="1422"
     inkscape:window-x="0"
     inkscape:window-y="0"
     inkscape:window-maximized="1" />
  <metadata
     id="metadata7">
    <rdf:RDF>
      <cc:Work
         rdf:about="">
        <dc:format>image/svg+xml</dc:format>
        <dc:type
           rdf:resource="http://purl.org/dc/dcmitype/StillImage" />
        <dc:title></dc:title>
      </cc:Work>
    </rdf:RDF>
  </metadata>
  <g
     inkscape:label="Layer 1"
     inkscape:groupmode="layer"
     id="layer1"
     transform="translate(0,-924.36213)">
    <g
       id="g4246"
       transform="matrix(0.54241469,0,0,0.54241469,40.724173,1074.392)">
      <path
         d="m 13.147496,-118.28536 q -1.08,1.98 -3.24,2.7 -2.1600003,0.54 -4.1400003,-0.72 l -53.0999997,-30.6 q -1.98,-1.26 -2.88,-3.24 -0.9,-2.16 -0.9,-4.14 l 0,-6.3 q 0,-2.7 0.72,-4.32 0.9,-1.8 3.06,-3.06 l 52.9199997,-30.6 q 2.16,-1.26 4.1400003,-0.54 1.98,0.54 3.24,2.52 l 2.52,4.86 q 1.26,1.98 0.54,4.14 -0.54,2.16 -2.52,3.24 l -42.12,23.76 q -5.4,2.88 0,6.12 l 42.12,24.3 q 2.16,1.26 2.52,3.42 0.54,1.98 -0.54,3.96 l -2.34,4.5 z"
         style="font-style:normal;font-variant:normal;font-weight:normal;font-stretch:normal;font-size:180px;line-height:125%;font-family:SciFly;-inkscape-font-specification:SciFly;letter-spacing:0px;word-spacing:0px;fill:#eaebec;fill-opacity:1;stroke:none;stroke-width:1px;stroke-linecap:butt;stroke-linejoin:miter;stroke-opacity:1"
         id="path4219"
         inkscape:connector-curvature="0" />
      <path
         d="m 39.763746,-120.26536 q 1.8,-1.8 3.78,-1.62 2.16,0.18 3.78,1.62 1.44,1.26 3.24,2.88 1.8,1.44 4.14,2.7 2.34,1.26 5.4,2.16 3.06,0.72 7.02,0.72 8.64,0 14.22,-4.68 5.58,-4.86 5.58,-12.06 0,-8.1 -5.04,-12.96 -4.86,-4.86 -15.66,-10.08 -6.84,-3.24 -12.42,-6.84 -5.4,-3.6 -9.36,-8.1 -3.96,-4.5 -6.12,-10.08 -1.98,-5.76 -1.98,-13.14 0,-6.12 2.34,-11.88 2.34,-5.76 6.84,-10.08 4.5,-4.5 10.8,-7.2 6.48,-2.7 14.4,-2.7 10.26,0 17.46,3.96 7.38,3.96 11.7,8.28 3.780004,3.78 0,7.56 l -4.14,4.32 q -1.8,1.8 -3.42,1.98 -1.62,0 -3.78,-1.98 -2.34,-2.16 -7.2,-5.04 -4.86,-2.88 -10.62,-2.88 -3.96,0 -7.38,1.44 -3.24,1.26 -5.76,3.42 -2.34,2.16 -3.78,5.04 -1.26,2.7 -1.26,5.76 0,3.96 1.08,7.02 1.26,3.06 3.6,5.76 2.52,2.52 6.3,4.86 3.96,2.34 9.54,4.68 7.38,3.24 13.14,6.84 5.76,3.6 9.72,8.1 3.96,4.32 5.940004,10.08 2.16,5.58 2.16,12.96 0,6.84 -2.88,12.96 -2.880004,6.12 -7.920004,10.8 -5.04,4.5 -11.88,7.379999 -6.66,2.7 -14.22,2.7 -12.24,0 -19.26,-3.6 -6.84,-3.779999 -12.06,-9.539999 -1.44,-1.44 -1.62,-3.6 -0.18,-2.16 1.62,-3.96 l 3.96,-3.96 z"
         style="font-style:normal;font-variant:normal;font-weight:normal;font-stretch:normal;font-size:180px;line-height:125%;font-family:SciFly;-inkscape-font-specification:SciFly;letter-spacing:0px;word-spacing:0px;fill:#b9bdc5;fill-opacity:1;stroke:none;stroke-width:1px;stroke-linecap:butt;stroke-linejoin:miter;stroke-opacity:1"
         id="path4221"
         inkscape:connector-curvature="0" />
      <path
         d="m 158.06593,-97.405361 q -2.52,0 -3.96,-1.44 -1.44,-1.439999 -1.44,-3.959999 l 0,-43.2 q 0,-3.06 -2.52,-3.96 -14.04,-3.96 -21.96,-14.58 -7.92,-10.8 -7.92,-26.46 l 0,-23.4 q 0,-2.52 1.44,-3.96 1.44,-1.44 3.96,-1.44 l 6.3,0 q 2.52,0 3.96,1.44 1.44,1.44 1.44,3.96 l 0,23.4 q 0,5.4 1.26,10.26 1.44,4.68 4.32,8.28 2.88,3.42 7.2,5.58 4.5,1.98 10.62,1.98 6.12,0 10.44,-1.98 4.5,-2.16 7.38,-5.58 2.88,-3.6 4.14,-8.28 1.44,-4.86 1.44,-10.26 l 0,-23.4 q 0,-2.52 1.44,-3.96 1.44,-1.44 3.96,-1.44 l 6.3,0 q 2.52,0 3.96,1.44 1.44,1.44 1.44,3.96 l 0,23.4 q 0,15.3 -7.74,26.28 -7.74,10.98 -21.24,14.58 -1.44,0.36 -1.98,1.62 -0.54,1.08 -0.54,2.52 l 0,43.2 q 0,2.52 -1.44,3.959999 -1.44,1.44 -3.96,1.44 l -6.3,0 z"
         style="font-style:normal;font-variant:normal;font-weight:normal;font-stretch:normal;font-size:180px;line-height:125%;font-family:SciFly;-inkscape-font-specification:SciFly;letter-spacing:0px;word-spacing:0px;fill:#b9bdc5;fill-opacity:1;stroke:none;stroke-width:1px;stroke-linecap:butt;stroke-linejoin:miter;stroke-opacity:1"
         id="path4223"
         inkscape:connector-curvature="0" />
      <path
         d="m 223.27937,-120.26536 q 1.8,-1.8 3.78,-1.62 2.16,0.18 3.78,1.62 1.44,1.26 3.24,2.88 1.8,1.44 4.14,2.7 2.34,1.26 5.4,2.16 3.06,0.72 7.02,0.72 8.64,0 14.22,-4.68 5.58,-4.86 5.58,-12.06 0,-8.1 -5.04,-12.96 -4.86,-4.86 -15.66,-10.08 -6.84,-3.24 -12.42,-6.84 -5.4,-3.6 -9.36,-8.1 -3.96,-4.5 -6.12,-10.08 -1.98,-5.76 -1.98,-13.14 0,-6.12 2.34,-11.88 2.34,-5.76 6.84,-10.08 4.5,-4.5 10.8,-7.2 6.48,-2.7 14.4,-2.7 10.26,0 17.46,3.96 7.38,3.96 11.7,8.28 3.78,3.78 0,7.56 l -4.14,4.32 q -1.8,1.8 -3.42,1.98 -1.62,0 -3.78,-1.98 -2.34,-2.16 -7.2,-5.04 -4.86,-2.88 -10.62,-2.88 -3.96,0 -7.38,1.44 -3.24,1.26 -5.76,3.42 -2.34,2.16 -3.78,5.04 -1.26,2.7 -1.26,5.76 0,3.96 1.08,7.02 1.26,3.06 3.6,5.76 2.52,2.52 6.3,4.86 3.96,2.34 9.54,4.68 7.38,3.24 13.14,6.84 5.76,3.6 9.72,8.1 3.96,4.32 5.94,10.08 2.16,5.58 2.16,12.96 0,6.84 -2.88,12.96 -2.88,6.12 -7.92,10.8 -5.04,4.5 -11.88,7.379999 -6.66,2.7 -14.22,2.7 -12.24,0 -19.26,-3.6 -6.84,-3.779999 -12.06,-9.539999 -1.44,-1.44 -1.62,-3.6 -0.18,-2.16 1.62,-3.96 l 3.96,-3.96 z"
         style="font-style:normal;font-variant:normal;font-weight:normal;font-stretch:normal;font-size:180px;line-height:125%;font-family:SciFly;-inkscape-font-specification:SciFly;letter-spacing:0px;word-spacing:0px;fill:#b9bdc5;fill-opacity:1;stroke:none;stroke-width:1px;stroke-linecap:butt;stroke-linejoin:miter;stroke-opacity:1"
         id="path4225"
         inkscape:connector-curvature="0" />
      <path
         d="m 436.08156,-214.40536 q 0,-2.52 1.44,-3.96 1.44,-1.44 3.96,-1.44 l 6.3,0 q 2.52,0 3.96,1.44 1.44,1.44 1.44,3.96 l 0,77.4 q 0,9.18 -2.88,16.92 -2.88,7.56 -8.28,12.96 -5.22,5.4 -12.78,8.459999 -7.38,3.06 -16.56,3.06 -5.58,0 -9.9,-1.08 -4.32,-0.9 -7.92,-2.7 -3.42,-1.799999 -6.3,-4.139999 -2.88,-2.52 -5.4,-5.22 -2.7,-2.7 -5.04,0 -5.22,6.3 -12.24,9.719999 -7.02,3.42 -17.1,3.42 -9.18,0 -16.74,-3.06 -7.38,-3.059999 -12.78,-8.459999 -5.22,-5.4 -8.1,-12.96 -2.88,-7.74 -2.88,-16.92 l 0,-77.4 q 0,-2.52 1.44,-3.96 1.44,-1.44 3.96,-1.44 l 6.3,0 q 2.52,0 3.96,1.44 1.44,1.44 1.44,3.96 l 0,77.4 q 0,5.4 1.26,10.08 1.44,4.5 4.32,7.92 2.88,3.42 7.2,5.4 4.5,1.8 10.62,1.8 12.06,0 17.64,-7.2 5.76,-7.2 5.76,-18 l 0,-77.4 q 0,-2.52 1.44,-3.96 1.44,-1.44 3.96,-1.44 l 6.3,0 q 2.52,0 3.96,1.44 1.44,1.44 1.44,3.96 l 0,77.4 q 0,5.4 1.26,10.08 1.44,4.5 4.32,7.92 2.88,3.42 7.2,5.4 4.5,1.8 10.62,1.8 12.06,0 17.64,-7.2 5.76,-7.2 5.76,-18 l 0,-77.4 z"
         style="font-style:normal;font-variant:normal;font-weight:normal;font-stretch:normal;font-size:180px;line-height:125%;font-family:SciFly;-inkscape-font-specification:SciFly;letter-spacing:0px;word-spacing:0px;fill:#ad9d7d;fill-opacity:1;stroke:none;stroke-width:1px;stroke-linecap:butt;stroke-linejoin:miter;stroke-opacity:1"
         id="path4227"
         inkscape:connector-curvature="0" />
      <path
         d="m 541.26,-97.405361 q -4.5,0 -6.66,-4.859999 l -21.24,-45.72 q -1.08,-2.52 -3.78,-2.52 l -17.1,0 q -1.8,0 -1.8,1.8 l 0,45.9 q 0,2.52 -1.44,3.959999 -1.44,1.44 -3.96,1.44 l -6.3,0 q -2.52,0 -3.96,-1.44 -1.44,-1.439999 -1.44,-3.959999 l 0,-111.6 q 0,-2.52 1.44,-3.96 1.44,-1.44 3.96,-1.44 l 36.9,0 q 7.2,0 13.5,2.7 6.3,2.52 10.8,7.2 4.68,4.5 7.2,10.8 2.7,6.3 2.7,13.5 0,10.26 -5.04,18.18 -4.86,7.92 -12.42,12.06 -2.88,1.62 -1.26,5.22 l 21.78,46.26 q 1.26,2.7 0.18,4.679999 -1.08,1.8 -3.78,1.8 l -8.28,0 z m -26.64,-69.299999 q 3.6,0 6.84,-1.26 3.42,-1.44 5.94,-3.96 2.52,-2.52 3.96,-5.94 1.62,-3.6 1.62,-7.74 0,-4.14 -1.62,-7.38 -1.44,-3.42 -3.96,-5.76 -2.52,-2.34 -5.94,-3.6 -3.24,-1.26 -6.84,-1.26 l -22.14,0 q -1.8,0 -1.8,1.8 l 0,33.3 q 0,1.8 1.8,1.8 l 22.14,0 z"
         style="font-style:normal;font-variant:normal;font-weight:normal;font-stretch:normal;font-size:180px;line-height:125%;font-family:SciFly;-inkscape-font-specification:SciFly;letter-spacing:0px;word-spacing:0px;fill:#ad9d7d;fill-opacity:1;stroke:none;stroke-width:1px;stroke-linecap:butt;stroke-linejoin:miter;stroke-opacity:1"
         id="path4229"
         inkscape:connector-curvature="0" />
      <path
         d="m 657.79125,-97.405361 q -1.8,1.44 -4.14,1.26 -2.16,-0.18 -4.14,-1.26 l -52.38,-30.599999 q -1.26,-0.72 -2.34,0 -0.9,0.72 -1.26,1.8 l -7.38,24.48 q -1.26,4.319999 -6.12,4.319999 l -8.82,0 q -5.22,0 -3.78,-5.039999 l 36,-112.5 q 0.9,-2.88 2.34,-3.78 1.62,-1.08 4.14,-1.08 l 12.6,0 q 2.52,0 3.96,1.08 1.62,0.9 2.52,3.78 l 34.38,107.64 q 1.26,4.14 -1.44,6.48 l -4.14,3.419999 z m -39.78,-99.539999 q -0.54,-1.98 -1.8,-1.98 -1.26,0 -1.8,1.98 l -14.22,47.52 q -0.72,2.34 -0.18,3.6 0.54,1.08 1.8,1.8 l 33.84,19.8 q 1.98,1.26 2.88,0.36 0.9,-1.08 0.54,-2.34 l -21.06,-70.74 z"
         style="font-style:normal;font-variant:normal;font-weight:normal;font-stretch:normal;font-size:180px;line-height:125%;font-family:SciFly;-inkscape-font-specification:SciFly;letter-spacing:0px;word-spacing:0px;fill:#ad9d7d;fill-opacity:1;stroke:none;stroke-width:1px;stroke-linecap:butt;stroke-linejoin:miter;stroke-opacity:1"
         id="path4231"
         inkscape:connector-curvature="0" />
      <path
         d="m 686.42531,-97.405361 q -2.52,0 -3.96,-1.44 -1.44,-1.439999 -1.44,-3.959999 l 0,-111.6 q 0,-2.52 1.44,-3.96 1.44,-1.44 3.96,-1.44 l 37.8,0 q 7.2,0 13.68,2.88 6.48,2.88 11.16,7.92 4.68,4.86 7.38,11.52 2.88,6.48 2.88,13.68 0,7.38 -2.88,13.86 -2.7,6.48 -7.38,11.52 -4.68,4.86 -11.16,7.74 -6.48,2.88 -13.68,2.88 l -24.3,0 q -1.8,0 -1.8,1.8 l 0,43.2 q 0,2.52 -1.44,3.959999 -1.44,1.44 -3.96,1.44 l -6.3,0 z m 36.54,-66.599999 q 3.6,0 7.02,-1.26 3.42,-1.26 6.12,-3.78 2.7,-2.52 4.32,-6.12 1.8,-3.78 1.8,-8.64 0,-4.86 -1.8,-8.46 -1.62,-3.78 -4.32,-6.3 -2.7,-2.52 -6.12,-3.78 -3.42,-1.26 -7.02,-1.26 l -23.04,0 q -1.8,0 -1.8,1.8 l 0,36 q 0,1.8 1.8,1.8 l 23.04,0 z"
         style="font-style:normal;font-variant:normal;font-weight:normal;font-stretch:normal;font-size:180px;line-height:125%;font-family:SciFly;-inkscape-font-specification:SciFly;letter-spacing:0px;word-spacing:0px;fill:#ad9d7d;fill-opacity:1;stroke:none;stroke-width:1px;stroke-linecap:butt;stroke-linejoin:miter;stroke-opacity:1"
         id="path4233"
         inkscape:connector-curvature="0" />
      <path
         d="m 788.00093,-116.30536 q -1.98,1.26 -4.14,0.72 -2.16,-0.72 -3.24,-2.7 l -2.34,-4.5 q -1.08,-1.98 -0.72,-3.96 0.54,-2.16 2.7,-3.42 l 42.12,-24.3 q 5.4,-3.24 0,-6.12 l -42.12,-23.76 q -1.98,-1.08 -2.7,-3.24 -0.54,-2.16 0.72,-4.14 l 2.52,-4.86 q 1.26,-1.98 3.24,-2.52 1.98,-0.72 4.14,0.54 l 52.92,30.6 q 2.16,1.26 2.88,3.06 0.9,1.62 0.9,4.32 l 0,6.3 q 0,1.98 -0.9,4.14 -0.9,1.98 -2.88,3.24 l -53.1,30.6 z"
         style="font-style:normal;font-variant:normal;font-weight:normal;font-stretch:normal;font-size:180px;line-height:125%;font-family:SciFly;-inkscape-font-specification:SciFly;letter-spacing:0px;word-spacing:0px;fill:#eaebec;fill-opacity:1;stroke:none;stroke-width:1px;stroke-linecap:butt;stroke-linejoin:miter;stroke-opacity:1"
         id="path4235"
         inkscape:connector-curvature="0" />
    </g>
  </g>
</svg>
